<?xml version="1.0" encoding="utf-8"?>
<!-- Generator: Adobe Illustrator 19.0.0, SVG Export Plug-In . SVG Version: 6.00 Build 0)  -->
<svg version="1.1" id="Layer_1" xmlns="http://www.w3.org/2000/svg" xmlns:xlink="http://www.w3.org/1999/xlink" x="0px" y="0px"
	 viewBox="0 0 500 500" style="enable-background:new 0 0 500 500;" xml:space="preserve">
<g transform="translate(677.75822,-316.64792)">
	<path id="XMLID_5_" d="M-547.8,538.1h7.1v18.8h-7.1c-3.5-11.7-21.2-13.4-32.2-13.4c-9.7,0-16.9,2.5-16.9,7.4
		c0,5.7,13.6,5.8,24.6,7.3c14.1,1.9,34.8,1.6,34.8,20.1c0,14.6-19.4,19.5-31.5,19.6c-21.7,0-28.5-6.2-33.4-6.2c-1.4,0-2.1,1.3-2.1,4
		h-7.1v-21.1h7.1c2.7,12.7,22.2,15.5,30.5,15.5c5.8,0,20.9-1.1,20.9-8.1c0-6.6-9.6-6.2-21.4-7.9c-12.8-1.8-38.2-2.2-38.2-19.3
		c0-13.2,14.8-19.5,31.3-19.5c19.2,0,28.8,6.2,31.6,6.2C-548.5,541.6-547.8,540.4-547.8,538.1L-547.8,538.1z"/>
	<path d="M-481.1,535.3c-26.1,0-43.3,13.4-43.3,31.3c0,17.9,17.3,31.3,43.3,31.3c26.1,0,43.3-13.4,43.3-31.3
		C-437.8,548.8-455.1,535.3-481.1,535.3L-481.1,535.3z M-481.1,543.7c14.9,0,24.8,9.8,24.8,23c0,13.1-9.9,23-24.8,23
		c-14.9,0-24.8-9.8-24.8-23C-506,553.5-496.1,543.7-481.1,543.7L-481.1,543.7z"/>
	<path id="XMLID_2_" d="M-350.6,594.5H-362l-45.7-39.1v29.1c0,2,1,2.9,2.9,2.9h8.4v7.1h-34.2v-7.1h8.4c1.9,0,2.9-1,2.9-2.9v-35.6
		c0-1.9-1-2.9-2.9-2.9h-8.4v-7.1h28.7l39.8,34v-24c0-1.9-1-2.9-2.9-2.9h-8.4v-7.1h34.2v7.1h-8.4c-2,0-2.9,1-2.9,2.9V594.5
		L-350.6,594.5z"/>
	<path id="XMLID_6_" d="M-276.4,538.8h33.6v7.1h-6.6c-2.8,0-5.1,1-7,2.9l-22.5,24v11.6c0,2,1,2.9,2.9,2.9h8.4v7.1h-40.5v-7.1h8.4
		c2,0,2.9-1,2.9-2.9v-10.9l-23.1-24.7c-1.9-1.9-4.2-2.9-7-2.9h-6.6v-7.1h41.3v7.1h-4.1c-1,0-1.6,0.3-1.9,1c-0.3,0.7-0.2,1.3,0.3,1.9
		l13.6,14.5l13.6-14.5c0.5-0.6,0.6-1.2,0.3-1.9c-0.3-0.7-0.9-1-1.9-1h-4.1V538.8L-276.4,538.8z"/>
</g>
</svg>
